<?xml version="1.0" standalone="no"?>
<svg
  width="600"
  height="600"
  viewBox="0 0 600 600"
  xmlns="http://www.w3.org/2000/svg"
>
  <g transform="translate(300,300)">
    <path d="M142.4,-177.4C181.4,-167.7,207.7,-121.9,215.9,-75.2C224.1,-28.5,214.3,19,192.7,55.5C171,92,137.5,117.6,103.4,132C69.4,146.5,34.7,149.7,-2.2,152.7C-39,155.7,-78,158.3,-121.7,147C-165.5,135.8,-214,110.5,-221,75.1C-227.9,39.7,-193.4,-6,-165.4,-41.9C-137.4,-77.8,-116,-104,-89.6,-117.8C-63.1,-131.5,-31.5,-132.8,10.1,-146.6C51.7,-160.5,103.5,-187.1,142.4,-177.4Z" fill="#0693e3" />
  </g>
</svg>
    